<?xml version="1.0" encoding="UTF-8"?>
<svg id="Layer_1" data-name="Layer 1" xmlns="http://www.w3.org/2000/svg" viewBox="0 0 411.61 266.88">
  <defs>
    <style>
      .cls-1 {
        font-family: CormorantInfant-Medium, 'Cormorant Infant';
        font-size: 48.45px;
        font-variation-settings: 'wght' 500;
        font-weight: 500;
      }

      .cls-1, .cls-2 {
        fill: #fff;
      }
    </style>
  </defs>
  <text class="cls-1" transform="translate(0 253.17)"><tspan x="0" y="0">THE FIFTH HOUSE</tspan></text>
  <g>
    <path class="cls-2" d="M290.28,163.98h-149.32V0h149.32v163.98ZM142.75,162.18h145.74V1.79h-145.74v160.39Z"/>
    <path class="cls-2" d="M165.16,4.58c-5.61-.05-11.22,0-16.84,0-.52,0-1.22.41-1.3.99-.48,3.5-.58,7-.21,10.52.07.67.56,1.42,1.34,1.34,14.96-1.35,30.13.58,44.81,3.38,6.8,1.29,13.52,2.79,20.01,5.22,5.34,2,10.48,4.53,15.34,7.52,8.86,5.43,16.71,12.38,23.47,20.25,5.81,6.77,10.81,14.22,15.07,22.05,3.09,5.68,5.76,11.48,8.04,17.39,2.32,6.03,4.6,12.17,5.82,18.51,1.15,5.92,1.38,12.11,1.38,18.15,0,3.64-.38,7.21-.85,10.81-.19,1.47-.51,3.25-1.23,4.81-1.4,3.01-3.9,5.6-6.63,7.44-2.34,1.57-5.62,2.25-8.43,2.4-3.96.21-7.42-1.33-10.51-3.7-2.71-2.08-4.68-4.56-5.49-7.93-1.58-6.57,1.99-12.89,8-15.67,2.81-1.3,6.71-2.03,9.65-.73,3.3,1.46,4.45,5.37,4.63,8.67.17,3.04-.45,6.49-2.85,8.6-1.88,1.65-4.77,1.82-7.02.86-2.41-1.03-3.93-3.4-3.33-6.04s2.8-4.99,5.53-5c1.25,0,2.98.62,3.31,1.99.33,1.4-1.12,2.59-2.27,3.04-1.59.62-.9,3.23.71,2.59,3.15-1.24,5.77-4.83,3.3-8-2.13-2.72-6.19-2.88-8.98-1.15-2.67,1.65-4.53,4.8-4.43,7.97.1,3.13,2.14,5.76,4.95,7,2.74,1.2,6.05,1.2,8.68-.3,2.94-1.69,4.5-5.04,4.93-8.29.46-3.42.08-7.76-1.94-10.66-1.11-1.6-2.55-3.05-4.37-3.81-1.73-.71-3.68-.87-5.53-.73-7.18.54-14.01,5.6-15.65,12.78-.77,3.39-.44,6.98.93,10.17,1.53,3.58,4.41,6.15,7.64,8.22,3.42,2.19,7.36,3.21,11.41,2.7,3.42-.43,6.74-1.29,9.52-3.42,2.79-2.15,5.32-4.8,6.74-8.06.47-1.07.83-2.17,1.05-3.32.08-.39.13-.78.19-1.17.04-.25.07-.51.1-.76.01-.08.02-.17.03-.25.05-.39-.04.27.01-.09.97-6.59.89-13.1.6-19.73-.34-7.74-2.11-15.21-4.77-22.45-1.6-4.37-3.2-8.72-5.07-12.98-3.43-7.82-7.52-15.35-12.31-22.42-6.03-8.91-13.18-17.12-21.48-24-9.57-7.92-20.58-13.99-32.47-17.62-8.02-2.45-16.41-3.88-24.7-5.13-8.25-1.25-16.58-2.11-24.92-2.18-3.55-.03-7.1.1-10.64.42.45.45.9.9,1.34,1.34-.34-3.26-.33-6.56.11-9.81-.43.33-.86.66-1.3.99,5.61,0,11.22-.05,16.84,0,1.73.02,1.73-2.67,0-2.69h0Z"/>
  </g>
</svg>